<svg width="510" height="502" viewBox="0 0 510 502" fill="none" xmlns="http://www.w3.org/2000/svg">
    <rect width="510" height="502" rx="12" fill="#2291FF" />
    <mask id="mask0_217_835" style="mask-type:alpha" maskUnits="userSpaceOnUse" x="0" y="0" width="510" height="502">
        <rect width="510" height="502" fill="#2291FF" />
    </mask>
    <g mask="url(#mask0_217_835)">
        <path
            d="M510 316.5C510 368.996 493.441 420.155 462.681 462.695C431.921 505.236 388.526 536.989 338.673 553.437C288.819 569.885 235.048 570.189 185.012 554.306C134.976 538.423 91.2252 507.162 59.9855 464.973C28.7459 422.783 11.6097 371.815 11.016 319.322C10.4222 266.829 26.401 215.486 56.6784 172.601C86.9557 129.715 129.989 97.4728 179.653 80.462C229.316 63.4512 283.081 62.5389 333.293 77.855"
            stroke="#80C0FF" stroke-opacity="0.23" stroke-width="79" stroke-linecap="round" />
        <path
            d="M195.25 203.484C219.029 189.755 246.533 183.876 273.847 186.685C301.161 189.493 326.893 200.845 347.382 219.126C367.87 237.406 382.07 261.683 387.961 288.502C393.852 315.321 391.134 343.314 380.193 368.498C369.252 393.683 350.646 414.774 327.024 428.771C303.401 442.768 275.966 448.958 248.622 446.459C221.278 443.959 195.418 432.899 174.725 414.851C154.031 396.804 139.557 372.689 133.363 345.938"
            stroke="#80C0FF" stroke-opacity="0.11" stroke-width="79" stroke-linecap="round" />
    </g>
    <path
        d="M159.752 100.526C144.173 100.537 129.235 106.86 118.219 118.107C107.203 129.354 101.01 144.605 101 160.511C101.013 169.356 103.078 178.073 107.026 185.946C110.974 193.819 116.693 200.626 123.713 205.809L204.989 252.652C209.474 256.16 212.767 261.016 214.406 266.536C216.044 272.055 215.945 277.961 214.123 283.42C212.3 288.879 208.845 293.617 204.246 296.966C199.646 300.314 194.133 302.105 188.484 302.086H101.416V333.006H188.484C200.595 333.017 212.397 329.109 222.196 321.842C231.995 314.576 239.285 304.325 243.02 292.563C246.755 280.801 246.742 268.133 242.983 256.379C239.225 244.624 231.913 234.389 222.1 227.143L140.786 180.3C137.829 177.96 135.436 174.96 133.789 171.53C132.142 168.1 131.285 164.331 131.284 160.511C131.294 152.806 134.297 145.419 139.633 139.97C144.97 134.522 152.205 131.457 159.752 131.446H395.129C414.332 116.031 418.298 111.704 432 100.526H159.752Z"
        fill="#333333" />
    <path d="M317.618 262.783L290.741 277.045L289.075 273.992L220.708 146.679H255.27L305.467 240.134L317.618 262.783Z"
        fill="white" />
    <path d="M384.448 146.679L279.512 363.118H246.01L289.089 273.992L305.481 240.134L350.643 146.679H384.448Z"
        fill="white" />
</svg>